0
SECTION
2
HEADER
9
$INSUNITS
70
4
9
$ACADVER
1
AC1014
9
$HANDSEED
5
FFFF
0
ENDSEC
0
SECTION
2
TABLES
0
TABLE
2
VPORT
5
8
100
AcDbSymbolTable
0
ENDTAB
0
TABLE
2
LTYPE
5
5
100
AcDbSymbolTable
0
LTYPE
5
14
100
AcDbSymbolTableRecord
100
AcDbLinetypeTableRecord
2
BYBLOCK
70
0
0
LTYPE
5
15
100
AcDbSymbolTableRecord
100
AcDbLinetypeTableRecord
2
BYLAYER
70
0
0
ENDTAB
0
TABLE
2
LAYER
5
2
100
AcDbSymbolTable
70
2
0
LAYER
5
50
100
AcDbSymbolTableRecord
100
AcDbLayerTableRecord
2
0
70
0
6
CONTINUOUS
0
ENDTAB
0
TABLE
2
STYLE
5
3
100
AcDbSymbolTable
70
1
0
STYLE
5
11
100
AcDbSymbolTableRecord
100
AcDbTextStyleTableRecord
2
STANDARD
70
0
0
ENDTAB
0
TABLE
2
VIEW
5
6
100
AcDbSymbolTable
70
0
0
ENDTAB
0
TABLE
2
UCS
5
7
100
AcDbSymbolTable
70
0
0
ENDTAB
0
TABLE
2
APPID
5
9
100
AcDbSymbolTable
70
2
0
APPID
5
12
100
AcDbSymbolTableRecord
100
AcDbRegAppTableRecord
2
ACAD
70
0
0
ENDTAB
0
TABLE
2
DIMSTYLE
5
A
100
AcDbSymbolTable
70
1
0
ENDTAB
0
TABLE
2
BLOCK_RECORD
5
1
100
AcDbSymbolTable
70
1
0
BLOCK_RECORD
5
1F
100
AcDbSymbolTableRecord
100
AcDbBlockTableRecord
2
*MODEL_SPACE
0
BLOCK_RECORD
5
1B
100
AcDbSymbolTableRecord
100
AcDbBlockTableRecord
2
*PAPER_SPACE
0
ENDTAB
0
ENDSEC
0
SECTION
2
BLOCKS
0
BLOCK
5
20
100
AcDbEntity
100
AcDbBlockBegin
2
*MODEL_SPACE
0
ENDBLK
5
21
100
AcDbEntity
100
AcDbBlockEnd
0
BLOCK
5
1C
100
AcDbEntity
100
AcDbBlockBegin
2
*PAPER_SPACE
0
ENDBLK
5
1D
100
AcDbEntity
100
AcDbBlockEnd
0
ENDSEC
0
SECTION
2
ENTITIES
0
LWPOLYLINE
5
100
100
AcDbEntity
8
0
100
AcDbPolyline
90
6
70
1
43
0.0
10
6.2616264631056309
20
29.790000000000006
10
-20.1483735368944
20
29.790000000000006
10
-20.1483735368944
20
6.0600000000000041
10
6.2616264631056318
20
6.0600000000000041
10
12.791626463105601
20
13.650000000000006
10
12.791626463105601
20
22.200000000000006
0
LWPOLYLINE
5
101
100
AcDbEntity
8
0
100
AcDbPolyline
90
4
70
1
43
0.0
10
12.257295827394001
20
16.033696375719778
10
12.257295827394001
20
14.438760155151586
10
10.650184521172601
20
14.438760155151586
10
10.650184521172601
20
16.033696375719778
0
LWPOLYLINE
5
102
100
AcDbEntity
8
0
100
AcDbPolyline
90
4
70
1
43
0.0
10
4.9522444354786197
20
16.983353056668779
10
4.9522444354786197
20
16.191972489211278
10
2.7120286752912302
20
16.191972489211278
10
2.7120286752912302
20
16.983353056668779
0
LWPOLYLINE
5
103
100
AcDbEntity
8
0
100
AcDbPolyline
90
4
70
1
43
0.0
10
7.0585342534808904
20
21.289879891222981
10
7.0585342534808904
20
19.708328494224826
10
5.3783724333403509
20
19.708328494224826
10
5.3783724333403509
20
21.289879891222981
0
LWPOLYLINE
5
104
100
AcDbEntity
8
0
100
AcDbPolyline
90
4
70
1
43
0.0
10
2.6308757940719927
20
13.559152805534989
42
1.3382196416339378
10
5.0353948116672589
20
10.506094470678075
10
5.0353948116672598
20
14.185240357352836
10
2.63087579407199
20
14.185240357352836
0
LWPOLYLINE
5
105
100
AcDbEntity
8
0
100
AcDbPolyline
90
10
70
1
43
0.0
10
5.3783724333403491
20
14.533168823515467
42
0.18841117744543118
10
5.1466264631056298
20
13.940000000000005
42
1.3607256208423784
10
6.7405585236184207
20
14.438760155151586
10
7.0585342534808904
20
14.438760155151586
10
7.0585342534808904
20
16.191972489211278
10
5.3783724333403509
20
16.191972489211278
10
5.3783724333403509
20
15.704969063083587
10
5.0353948116672598
20
15.704969063083587
10
5.0353948116672598
20
14.682261868215436
10
5.3783724333403509
20
14.682261868215436
0
LWPOLYLINE
5
106
100
AcDbEntity
8
0
100
AcDbPolyline
90
4
70
1
43
0.0
10
10.650184521172601
20
19.708328494224826
10
10.650184521172601
20
21.289879891222981
10
12.257295827394001
20
21.289879891222981
10
12.257295827394001
20
19.708328494224826
0
LWPOLYLINE
5
107
100
AcDbEntity
8
0
100
AcDbPolyline
90
4
70
1
43
0.0
10
2.8094293605167704
20
15.704969063083587
10
2.8094293605167704
20
14.682261868215436
10
1.8232474226082003
20
14.682261868215436
10
1.8232474226082003
20
15.704969063083587
0
CIRCLE
5
108
100
AcDbEntity
8
0
100
AcDbCircle
10
-12.9283735368944
20
28.925000000000004
30
0
40
0.65500000000000103
210
0
220
2.4651903288156619e-32
230
1
0
CIRCLE
5
109
100
AcDbEntity
8
0
100
AcDbCircle
10
-10.9283735368944
20
28.925000000000004
30
0
40
0.65500000000000103
210
0
220
2.4651903288156619e-32
230
1
0
CIRCLE
5
110
100
AcDbEntity
8
0
100
AcDbCircle
10
-8.9283735368943695
20
28.925000000000004
30
0
40
0.65499999999999903
210
0
220
0
230
1
0
CIRCLE
5
111
100
AcDbEntity
8
0
100
AcDbCircle
10
-6.9283735368943713
20
28.925000000000004
30
0
40
0.65500000000000003
210
0
220
0
230
1
0
CIRCLE
5
112
100
AcDbEntity
8
0
100
AcDbCircle
10
-4.9283735368943704
20
28.925000000000004
30
0
40
0.65500000000000003
210
0
220
0
230
1
0
CIRCLE
5
113
100
AcDbEntity
8
0
100
AcDbCircle
10
-2.9283735368943704
20
28.925000000000004
30
0
40
0.65500000000000003
210
0
220
0
230
1
0
CIRCLE
5
114
100
AcDbEntity
8
0
100
AcDbCircle
10
-0.92837353689436908
20
28.925000000000004
30
0
40
0.65500000000000003
210
0
220
0
230
1
0
CIRCLE
5
115
100
AcDbEntity
8
0
100
AcDbCircle
10
1.07162646310563
20
28.925000000000004
30
0
40
0.65500000000000003
210
0
220
0
230
1
0
CIRCLE
5
116
100
AcDbEntity
8
0
100
AcDbCircle
10
3.07162646310563
20
28.925000000000004
30
0
40
0.65500000000000003
210
0
220
0
230
1
0
CIRCLE
5
117
100
AcDbEntity
8
0
100
AcDbCircle
10
5.0716264631056296
20
28.925000000000004
30
0
40
0.65500000000000003
210
0
220
0
230
1
0
CIRCLE
5
118
100
AcDbEntity
8
0
100
AcDbCircle
10
5.0716264631056296
20
6.9250000000000043
30
0
40
0.65500000000000003
210
0
220
0
230
1
0
CIRCLE
5
119
100
AcDbEntity
8
0
100
AcDbCircle
10
3.07162646310563
20
6.9250000000000043
30
0
40
0.65500000000000003
210
0
220
0
230
1
0
CIRCLE
5
120
100
AcDbEntity
8
0
100
AcDbCircle
10
1.07162646310563
20
6.9250000000000043
30
0
40
0.65500000000000003
210
0
220
0
230
1
0
CIRCLE
5
121
100
AcDbEntity
8
0
100
AcDbCircle
10
-0.92837353689436697
20
6.9250000000000043
30
0
40
0.65500000000000003
210
0
220
0
230
1
0
CIRCLE
5
122
100
AcDbEntity
8
0
100
AcDbCircle
10
-2.9283735368943704
20
6.9250000000000043
30
0
40
0.65500000000000003
210
0
220
0
230
1
0
CIRCLE
5
123
100
AcDbEntity
8
0
100
AcDbCircle
10
-4.9283735368943704
20
6.9250000000000043
30
0
40
0.65500000000000003
210
0
220
0
230
1
0
CIRCLE
5
124
100
AcDbEntity
8
0
100
AcDbCircle
10
-6.9283735368943713
20
6.9250000000000043
30
0
40
0.65500000000000003
210
0
220
0
230
1
0
CIRCLE
5
125
100
AcDbEntity
8
0
100
AcDbCircle
10
-12.9283735368944
20
6.9250000000000043
30
0
40
0.65500000000000103
210
0
220
2.4651903288156619e-32
230
1
0
CIRCLE
5
126
100
AcDbEntity
8
0
100
AcDbCircle
10
-10.9283735368944
20
6.9250000000000043
30
0
40
0.65500000000000103
210
0
220
2.4651903288156619e-32
230
1
0
CIRCLE
5
127
100
AcDbEntity
8
0
100
AcDbCircle
10
-8.9283735368943695
20
6.9250000000000043
30
0
40
0.65499999999999903
210
0
220
0
230
1
0
CIRCLE
5
128
100
AcDbEntity
8
0
100
AcDbCircle
10
-17.1667110746383
20
28.808808564803002
30
0
40
0.41556284474425198
210
0
220
2.4651903288156619e-32
230
1
0
CIRCLE
5
129
100
AcDbEntity
8
0
100
AcDbCircle
10
-18.908964665554102
20
27.315448344018062
30
0
40
0.76986758756479912
210
0
220
0
230
1
0
CIRCLE
5
130
100
AcDbEntity
8
0
100
AcDbCircle
10
4.1611721467660301
20
8.5719118454173469
30
0
40
0.73933341434053212
210
0
220
2.4651903288156619e-32
230
1
0
CIRCLE
5
131
100
AcDbEntity
8
0
100
AcDbCircle
10
-17.477421181695298
20
7.174175987026806
30
0
40
0.44215750216381
210
0
220
0
230
1
0
CIRCLE
5
132
100
AcDbEntity
8
0
100
AcDbCircle
10
6.6193047660581605
20
26.392083402820884
30
0
40
0.43915391062601106
210
0
220
2.4651903288156619e-32
230
1
0
CIRCLE
5
133
100
AcDbEntity
8
0
100
AcDbCircle
10
5.0716264631056296
20
28.925000000000004
30
0
40
0.65499999999999936
210
0
220
0
230
1
0
CIRCLE
5
134
100
AcDbEntity
8
0
100
AcDbCircle
10
3.07162646310563
20
28.925000000000004
30
0
40
0.65499999999999947
210
0
220
0
230
1
0
CIRCLE
5
135
100
AcDbEntity
8
0
100
AcDbCircle
10
1.07162646310563
20
28.925000000000004
30
0
40
0.65499999999999936
210
0
220
0
230
1
0
CIRCLE
5
136
100
AcDbEntity
8
0
100
AcDbCircle
10
-0.92837353689436908
20
28.925000000000004
30
0
40
0.65500000000000158
210
0
220
0
230
1
0
CIRCLE
5
137
100
AcDbEntity
8
0
100
AcDbCircle
10
-2.9283735368943704
20
28.925000000000004
30
0
40
0.65499999999999992
210
0
220
0
230
1
0
CIRCLE
5
138
100
AcDbEntity
8
0
100
AcDbCircle
10
-4.9283735368943704
20
28.925000000000004
30
0
40
0.65499999999999892
210
0
220
0
230
1
0
CIRCLE
5
139
100
AcDbEntity
8
0
100
AcDbCircle
10
-6.9283735368943713
20
28.925000000000004
30
0
40
0.65500000000000058
210
0
220
0
230
1
0
CIRCLE
5
140
100
AcDbEntity
8
0
100
AcDbCircle
10
-8.9283735368943695
20
28.925000000000004
30
0
40
0.65500000000000114
210
0
220
0
230
1
0
CIRCLE
5
141
100
AcDbEntity
8
0
100
AcDbCircle
10
-10.9283735368944
20
28.925000000000004
30
0
40
0.6550000000000028
210
0
220
0
230
1
0
CIRCLE
5
142
100
AcDbEntity
8
0
100
AcDbCircle
10
-12.9283735368944
20
28.925000000000004
30
0
40
0.65500000000000114
210
0
220
0
230
1
0
CIRCLE
5
143
100
AcDbEntity
8
0
100
AcDbCircle
10
-12.9283735368944
20
6.9250000000000043
30
0
40
0.65500000000000069
210
0
220
0
230
1
0
CIRCLE
5
144
100
AcDbEntity
8
0
100
AcDbCircle
10
-10.9283735368944
20
6.9250000000000043
30
0
40
0.65500000000000114
210
0
220
0
230
1
0
CIRCLE
5
145
100
AcDbEntity
8
0
100
AcDbCircle
10
-8.9283735368943695
20
6.9250000000000043
30
0
40
0.65499999999999892
210
0
220
0
230
1
0
CIRCLE
5
146
100
AcDbEntity
8
0
100
AcDbCircle
10
-6.9283735368943713
20
6.9250000000000043
30
0
40
0.65500000000000003
210
0
220
0
230
1
0
CIRCLE
5
147
100
AcDbEntity
8
0
100
AcDbCircle
10
-4.9283735368943704
20
6.9250000000000043
30
0
40
0.65500000000000003
210
0
220
0
230
1
0
CIRCLE
5
148
100
AcDbEntity
8
0
100
AcDbCircle
10
-2.9283735368943704
20
6.9250000000000043
30
0
40
0.65500000000000003
210
0
220
0
230
1
0
CIRCLE
5
149
100
AcDbEntity
8
0
100
AcDbCircle
10
-0.92837353689436697
20
6.9250000000000043
30
0
40
0.65500000000000003
210
0
220
0
230
1
0
CIRCLE
5
150
100
AcDbEntity
8
0
100
AcDbCircle
10
1.07162646310563
20
6.9250000000000043
30
0
40
0.65500000000000003
210
0
220
0
230
1
0
CIRCLE
5
151
100
AcDbEntity
8
0
100
AcDbCircle
10
3.07162646310563
20
6.9250000000000043
30
0
40
0.65500000000000003
210
0
220
0
230
1
0
CIRCLE
5
152
100
AcDbEntity
8
0
100
AcDbCircle
10
5.0716264631056296
20
6.9250000000000043
30
0
40
0.65500000000000003
210
0
220
0
230
1
0
LINE
5
153
100
AcDbEntity
8
0
100
AcDbLine
10
6.2616264631056318
20
6.0600000000000041
30
0
11
12.791626463105601
21
13.650000000000006
31
0
0
LINE
5
154
100
AcDbEntity
8
0
100
AcDbLine
10
12.791626463105601
20
13.650000000000006
30
0
11
12.791626463105601
21
22.200000000000006
31
0
0
LINE
5
155
100
AcDbEntity
8
0
100
AcDbLine
10
12.791626463105601
20
22.200000000000006
30
0
11
6.2616264631056309
21
29.790000000000006
31
0
0
LINE
5
156
100
AcDbEntity
8
0
100
AcDbLine
10
6.2616264631056309
20
29.790000000000006
30
0
11
-20.1483735368944
21
29.790000000000006
31
0
0
LINE
5
157
100
AcDbEntity
8
0
100
AcDbLine
10
-20.1483735368944
20
29.790000000000006
30
0
11
-20.1483735368944
21
6.0600000000000041
31
0
0
LINE
5
158
100
AcDbEntity
8
0
100
AcDbLine
10
-20.1483735368944
20
6.0600000000000041
30
0
11
6.2616264631056318
21
6.0600000000000041
31
0
0
ENDSEC
0
SECTION
2
OBJECTS
0
DICTIONARY
5
C
100
AcDbDictionary
3
ACAD_GROUP
350
D
3
ACAD_MLINESTYLE
350
17
0
DICTIONARY
5
D
100
AcDbDictionary
0
DICTIONARY
5
1A
330
C
100
AcDbDictionary
0
DICTIONARY
5
17
100
AcDbDictionary
0
ENDSEC
0
EOF
